{
  "accessors": [
    {
      "bufferView": 2,
      "componentType": 5126,
      "count": 194,
      "max": [
        0.48112499713897705,
        0.44929400086402893,
        -0.09630727022886276
      ],
      "min": [
        -0.47540199756622314,
        -0.44846999645233154,
        -0.46801701188087463
      ],
      "type": "VEC3"
    },
    {
      "bufferView": 2,
      "byteOffset": 2328,
      "componentType": 5126,
      "count": 194,
      "max": [
        0.9994882941246033,
        0.9998916983604431,
        0.8231422901153564
      ],
      "min": [
        -0.9987034797668457,
        -0.9999549984931946,
        -0.00010528699931455776
      ],
      "type": "VEC3"
    },
    {
      "bufferView": 1,
      "componentType": 5126,
      "count": 194,
      "max": [
        0.7192500233650208,
        0.6432560086250305
      ],
      "min": [
        0.004196702968329191,
        0.004196702968329191
      ],
      "type": "VEC2"
    },
    {
      "bufferView": 0,
      "componentType": 5125,
      "count": 660,
      "type": "SCALAR"
    },
    {
      "bufferView": 2,
      "byteOffset": 4656,
      "componentType": 5126,
      "count": 3710,
      "max": [
        0.4940490126609802,
        0.5,
        -0.07483786344528198
      ],
      "min": [
        -0.4783779978752136,
        -0.5,
        -0.5
      ],
      "type": "VEC3"
    },
    {
      "bufferView": 2,
      "byteOffset": 49176,
      "componentType": 5126,
      "count": 3710,
      "max": [
        1.0,
        0.9999973773956299,
        1.0
      ],
      "min": [
        -1.0,
        -0.9999974966049194,
        -1.0
      ],
      "type": "VEC3"
    },
    {
      "bufferView": 1,
      "byteOffset": 1552,
      "componentType": 5126,
      "count": 3710,
      "max": [
        0.9958029985427856,
        0.9826239943504333
      ],
      "min": [
        0.004196702968329191,
        0.004196702968329191
      ],
      "type": "VEC2"
    },
    {
      "bufferView": 0,
      "byteOffset": 2640,
      "componentType": 5125,
      "count": 15276,
      "type": "SCALAR"
    },
    {
      "bufferView": 2,
      "byteOffset": 93696,
      "componentType": 5126,
      "count": 782,
      "max": [
        0.3822160065174103,
        0.376691997051239,
        0.4961549937725067
      ],
      "min": [
        -0.47027501463890076,
        -0.285290002822876,
        -0.05559616908431053
      ],
      "type": "VEC3"
    },
    {
      "bufferView": 2,
      "byteOffset": 103080,
      "componentType": 5126,
      "count": 782,
      "max": [
        0.9989575743675232,
        0.991356372833252,
        1.0
      ],
      "min": [
        -0.9530879259109497,
        -0.9913643002510071,
        -0.9878243803977966
      ],
      "type": "VEC3"
    },
    {
      "bufferView": 1,
      "byteOffset": 31232,
      "componentType": 5126,
      "count": 782,
      "max": [
        0.9924769997596741,
        1.0
      ],
      "min": [
        0.0,
        0.00657200813293457
      ],
      "type": "VEC2"
    },
    {
      "bufferView": 0,
      "byteOffset": 63744,
      "componentType": 5125,
      "count": 4272,
      "type": "SCALAR"
    },
    {
      "bufferView": 2,
      "byteOffset": 112464,
      "componentType": 5126,
      "count": 898,
      "max": [
        0.3869760036468506,
        0.3775309920310974,
        0.5
      ],
      "min": [
        -0.5,
        -0.28613001108169556,
        -0.10610400140285492
      ],
      "type": "VEC3"
    },
    {
      "bufferView": 2,
      "byteOffset": 123240,
      "componentType": 5126,
      "count": 898,
      "max": [
        0.997616708278656,
        0.999474823474884,
        1.0
      ],
      "min": [
        -0.9993247985839844,
        -0.9994726777076721,
        -0.9999997019767761
      ],
      "type": "VEC3"
    },
    {
      "bufferView": 1,
      "byteOffset": 37488,
      "componentType": 5126,
      "count": 898,
      "max": [
        1.0,
        0.9947999715805054
      ],
      "min": [
        0.00465703010559082,
        0.0
      ],
      "type": "VEC2"
    },
    {
      "bufferView": 0,
      "byteOffset": 80832,
      "componentType": 5125,
      "count": 5088,
      "type": "SCALAR"
    },
    {
      "bufferView": 2,
      "byteOffset": 134016,
      "componentType": 5126,
      "count": 2001,
      "max": [
        0.5,
        0.4678800106048584,
        -0.1975048929452896
      ],
      "min": [
        -0.49584999680519104,
        -0.46713200211524963,
        -0.45030099153518677
      ],
      "type": "VEC3"
    },
    {
      "bufferView": 2,
      "byteOffset": 158028,
      "componentType": 5126,
      "count": 2001,
      "max": [
        0.9999998807907104,
        0.9993860721588135,
        0.9997488856315613
      ],
      "min": [
        -0.9999995827674866,
        -0.9999762773513794,
        -0.9994266033172607
      ],
      "type": "VEC3"
    },
    {
      "bufferView": 1,
      "byteOffset": 44672,
      "componentType": 5126,
      "count": 2001,
      "max": [
        0.9948089718818665,
        1.0
      ],
      "min": [
        0.0,
        0.0
      ],
      "type": "VEC2"
    },
    {
      "bufferView": 0,
      "byteOffset": 101184,
      "componentType": 5125,
      "count": 10320,
      "type": "SCALAR"
    },
    {
      "bufferView": 2,
      "byteOffset": 182040,
      "componentType": 5126,
      "count": 1972,
      "max": [
        0.21561799943447113,
        0.4340659976005554,
        0.1724800020456314
      ],
      "min": [
        -0.43896400928497314,
        -0.3426800072193146,
        -0.11623600125312805
      ],
      "type": "VEC3"
    },
    {
      "bufferView": 2,
      "byteOffset": 205704,
      "componentType": 5126,
      "count": 1972,
      "max": [
        1.0,
        1.0,
        0.9999989867210388
      ],
      "min": [
        -1.0,
        -1.0,
        -0.9999995231628418
      ],
      "type": "VEC3"
    },
    {
      "bufferView": 1,
      "byteOffset": 60680,
      "componentType": 5126,
      "count": 1972,
      "max": [
        0.994691014289856,
        0.9842659831047058
      ],
      "min": [
        0.005309164058417082,
        0.002408683067187667
      ],
      "type": "VEC2"
    },
    {
      "bufferView": 0,
      "byteOffset": 142464,
      "componentType": 5125,
      "count": 10362,
      "type": "SCALAR"
    }
  ],
  "asset": {
    "extras": {
      "author": "ℜ𝔢𝔞𝔩 𝔖𝔩𝔦𝔪 𝔖𝔥𝔞𝔡𝔶 (https://sketchfab.com/real_slimshady)",
      "license": "CC-BY-4.0 (http://creativecommons.org/licenses/by/4.0/)",
      "source": "https://sketchfab.com/3d-models/office-desk-chair-e3d038bac16740fb875c00450a13af1b",
      "title": "Office Desk Chair"
    },
    "generator": "Sketchfab-16.54.0",
    "version": "2.0"
  },
  "bufferViews": [
    {
      "buffer": 0,
      "byteLength": 183912,
      "name": "floatBufferViews",
      "target": 34963
    },
    {
      "buffer": 0,
      "byteLength": 76456,
      "byteOffset": 183912,
      "byteStride": 8,
      "name": "floatBufferViews",
      "target": 34962
    },
    {
      "buffer": 0,
      "byteLength": 229368,
      "byteOffset": 260368,
      "byteStride": 12,
      "name": "floatBufferViews",
      "target": 34962
    }
  ],
  "buffers": [
    {
      "byteLength": 489736,
      "uri": "scene.bin"
    }
  ],
  "extensionsUsed": [
    "KHR_materials_specular"
  ],
  "images": [
    {
      "uri": "textures/Material4-material_baseColor.png"
    },
    {
      "uri": "textures/Material3-material_baseColor.png"
    },
    {
      "uri": "textures/Material2-material_baseColor.png"
    },
    {
      "uri": "textures/Material1-material_baseColor.png"
    },
    {
      "uri": "textures/Material0-material_baseColor.png"
    }
  ],
  "materials": [
    {
      "doubleSided": true,
      "name": "Material4-material",
      "pbrMetallicRoughness": {
        "baseColorTexture": {
          "index": 0
        },
        "metallicFactor": 0.0,
        "roughnessFactor": 0.7477159246176417
      }
    },
    {
      "doubleSided": true,
      "name": "Material3-material",
      "pbrMetallicRoughness": {
        "baseColorTexture": {
          "index": 1
        },
        "metallicFactor": 0.0,
        "roughnessFactor": 0.6
      }
    },
    {
      "doubleSided": true,
      "name": "Material2-material",
      "pbrMetallicRoughness": {
        "baseColorTexture": {
          "index": 2
        },
        "metallicFactor": 0.0,
        "roughnessFactor": 0.6
      }
    },
    {
      "doubleSided": true,
      "extensions": {
        "KHR_materials_specular": {
          "specularColorFactor": [
            1.0,
            1.0,
            1.0
          ],
          "specularFactor": 0.3510329498731244
        }
      },
      "name": "Material1-material",
      "pbrMetallicRoughness": {
        "baseColorFactor": [
          0.08657763337677955,
          0.08657763337677955,
          0.08657763337677955,
          1.0
        ],
        "baseColorTexture": {
          "index": 3
        },
        "metallicFactor": 0.11176385399547907,
        "roughnessFactor": 0.8610539174017895
      }
    },
    {
      "doubleSided": true,
      "name": "Material0-material",
      "pbrMetallicRoughness": {
        "baseColorTexture": {
          "index": 4
        },
        "metallicFactor": 0.0,
        "roughnessFactor": 0.6
      }
    },
    {
      "doubleSided": true,
      "name": "Material5-material",
      "pbrMetallicRoughness": {
        "baseColorTexture": {
          "index": 4
        },
        "roughnessFactor": 0.15783574806223521
      }
    }
  ],
  "meshes": [
    {
      "name": "Material5-material-material",
      "primitives": [
        {
          "attributes": {
            "NORMAL": 1,
            "POSITION": 0,
            "TEXCOORD_0": 2
          },
          "indices": 3,
          "material": 5,
          "mode": 4
        }
      ]
    },
    {
      "name": "Material0-material-material",
      "primitives": [
        {
          "attributes": {
            "NORMAL": 5,
            "POSITION": 4,
            "TEXCOORD_0": 6
          },
          "indices": 7,
          "material": 4,
          "mode": 4
        }
      ]
    },
    {
      "name": "Material1-material-material",
      "primitives": [
        {
          "attributes": {
            "NORMAL": 9,
            "POSITION": 8,
            "TEXCOORD_0": 10
          },
          "indices": 11,
          "material": 3,
          "mode": 4
        }
      ]
    },
    {
      "name": "Material2-material-material",
      "primitives": [
        {
          "attributes": {
            "NORMAL": 13,
            "POSITION": 12,
            "TEXCOORD_0": 14
          },
          "indices": 15,
          "material": 2,
          "mode": 4
        }
      ]
    },
    {
      "name": "Material3-material-material",
      "primitives": [
        {
          "attributes": {
            "NORMAL": 17,
            "POSITION": 16,
            "TEXCOORD_0": 18
          },
          "indices": 19,
          "material": 1,
          "mode": 4
        }
      ]
    },
    {
      "name": "Material4-material-material",
      "primitives": [
        {
          "attributes": {
            "NORMAL": 21,
            "POSITION": 20,
            "TEXCOORD_0": 22
          },
          "indices": 23,
          "material": 0,
          "mode": 4
        }
      ]
    }
  ],
  "nodes": [
    {
      "children": [
        1
      ],
      "matrix": [
        1.0,
        0.0,
        0.0,
        0.0,
        0.0,
        2.220446049250313e-16,
        -1.0,
        0.0,
        0.0,
        1.0,
        2.220446049250313e-16,
        0.0,
        0.0,
        0.0,
        0.0,
        1.0
      ],
      "name": "Sketchfab_model"
    },
    {
      "children": [
        2,
        4,
        6,
        8,
        10,
        12
      ],
      "name": "Collada visual scene group"
    },
    {
      "children": [
        3
      ],
      "matrix": [
        -0.684218,
        0.2592528,
        0.0,
        0.0,
        -0.2637014,
        -0.6959588,
        0.0,
        0.0,
        0.0,
        0.0,
        1.06593,
        0.0,
        0.0116806,
        0.00146484,
        0.528114,
        1.0
      ],
      "name": "prim0"
    },
    {
      "mesh": 0,
      "name": "Material5-material-material"
    },
    {
      "children": [
        5
      ],
      "matrix": [
        -0.684218,
        0.2592528,
        0.0,
        0.0,
        -0.2637014,
        -0.6959588,
        0.0,
        0.0,
        0.0,
        0.0,
        1.06593,
        0.0,
        0.0116806,
        0.00146484,
        0.528114,
        1.0
      ],
      "name": "prim0.001"
    },
    {
      "mesh": 1,
      "name": "Material0-material-material"
    },
    {
      "children": [
        7
      ],
      "matrix": [
        -0.684218,
        0.2592528,
        0.0,
        0.0,
        -0.2637014,
        -0.6959588,
        0.0,
        0.0,
        0.0,
        0.0,
        1.06593,
        0.0,
        0.0116806,
        0.00146484,
        0.528114,
        1.0
      ],
      "name": "prim0.002"
    },
    {
      "mesh": 2,
      "name": "Material1-material-material"
    },
    {
      "children": [
        9
      ],
      "matrix": [
        -0.684218,
        0.2592528,
        0.0,
        0.0,
        -0.2637014,
        -0.6959588,
        0.0,
        0.0,
        0.0,
        0.0,
        1.06593,
        0.0,
        0.0116806,
        0.00146484,
        0.528114,
        1.0
      ],
      "name": "prim0.003"
    },
    {
      "mesh": 3,
      "name": "Material2-material-material"
    },
    {
      "children": [
        11
      ],
      "matrix": [
        -0.684218,
        0.2592528,
        0.0,
        0.0,
        -0.2637014,
        -0.6959588,
        0.0,
        0.0,
        0.0,
        0.0,
        1.06593,
        0.0,
        0.0116806,
        0.00146484,
        0.528114,
        1.0
      ],
      "name": "prim0.004"
    },
    {
      "mesh": 4,
      "name": "Material3-material-material"
    },
    {
      "children": [
        13
      ],
      "matrix": [
        -0.684218,
        0.2592528,
        0.0,
        0.0,
        -0.2637014,
        -0.6959588,
        0.0,
        0.0,
        0.0,
        0.0,
        1.06593,
        0.0,
        0.0116806,
        0.00146484,
        0.528114,
        1.0
      ],
      "name": "prim0.005"
    },
    {
      "mesh": 5,
      "name": "Material4-material-material"
    }
  ],
  "samplers": [
    {
      "magFilter": 9729,
      "minFilter": 9987,
      "wrapS": 10497,
      "wrapT": 10497
    }
  ],
  "scene": 0,
  "scenes": [
    {
      "name": "Sketchfab_Scene",
      "nodes": [
        0
      ]
    }
  ],
  "textures": [
    {
      "sampler": 0,
      "source": 0
    },
    {
      "sampler": 0,
      "source": 1
    },
    {
      "sampler": 0,
      "source": 2
    },
    {
      "sampler": 0,
      "source": 3
    },
    {
      "sampler": 0,
      "source": 4
    }
  ]
}
